<svg width="50" height="51" viewBox="0 0 50 51" fill="none" xmlns="http://www.w3.org/2000/svg">
<path d="M27.1849 39.8284C24.3427 40.2774 21.4312 39.8398 18.8465 38.5751C16.2619 37.3103 14.1298 35.2799 12.7403 32.7601C11.3509 30.2404 10.7716 27.3536 11.0814 24.4929C11.3911 21.6321 12.5748 18.9363 14.4714 16.7723" stroke="#1E1404" stroke-width="3" stroke-linecap="round"/>
<path d="M23.7693 12.054C26.6356 11.801 29.5103 12.4374 32.002 13.8765C34.4937 15.3157 36.4815 17.4877 37.6947 20.0969C38.908 22.706 39.2878 25.6257 38.7824 28.4584C38.2771 31.2912 36.9112 33.8994 34.8705 35.9281" stroke="#1E1404" stroke-width="3" stroke-linecap="round"/>
<path d="M47.9965 25C48.0782 29.8359 46.7201 34.5809 44.1063 38.592C41.4926 42.6032 37.7494 45.6866 33.3841 47.4246C29.0188 49.1625 24.2423 49.4709 19.7018 48.3081C15.1612 47.1453 11.0761 44.5673 8 40.9236" stroke="#1E1404" stroke-width="3" stroke-linecap="round"/>
<path d="M2.02069 28.0919C1.53117 23.3405 2.51408 18.5534 4.83625 14.3793C7.15842 10.2052 10.7076 6.84578 15.0029 4.75627C19.2982 2.66676 24.132 1.94815 28.8494 2.69778C33.5668 3.44742 37.9397 5.62907 41.3757 8.94715" stroke="#1E1404" stroke-width="3" stroke-linecap="round"/>
</svg>
