<?xml version="1.0" standalone="no"?>
<!DOCTYPE svg PUBLIC "-//W3C//DTD SVG 20010904//EN"
 "http://www.w3.org/TR/2001/REC-SVG-20010904/DTD/svg10.dtd">
<svg version="1.0" xmlns="http://www.w3.org/2000/svg"
 width="376.000000pt" height="326.000000pt" viewBox="0 0 376.000000 326.000000"
 preserveAspectRatio="xMidYMid meet">

<g transform="translate(0.000000,326.000000) scale(0.100000,-0.100000)"
fill="#000000" stroke="none">
<path d="M1776 3009 c-531 -61 -987 -431 -1151 -933 -52 -159 -72 -318 -67
-518 2 -55 6 -72 28 -97 34 -41 75 -42 114 -3 l28 28 -5 114 c-3 77 0 149 11
218 120 785 924 1239 1662 938 105 -43 231 -121 321 -199 37 -32 78 -61 92
-64 32 -8 72 15 89 51 22 44 0 79 -99 159 -288 237 -661 348 -1023 306z"/>
<path d="M1845 2483 c-73 -12 -103 -99 -49 -142 22 -18 41 -21 111 -21 114 0
210 -23 322 -77 214 -102 362 -327 378 -573 11 -173 -54 -365 -171 -499 -64
-74 -71 -107 -31 -146 24 -25 65 -32 99 -19 28 11 136 154 175 233 66 131 83
198 88 356 4 119 2 153 -16 228 -89 372 -407 639 -787 660 -49 3 -102 3 -119
0z"/>
<path d="M1268 2188 c-71 -76 -151 -227 -183 -343 -26 -96 -31 -275 -11 -375
59 -289 258 -531 527 -639 176 -71 452 -82 501 -21 24 29 23 71 -3 104 -20 26
-22 26 -152 26 -157 0 -238 19 -362 83 -143 74 -272 227 -324 382 -72 218 -33
460 102 637 66 86 69 102 31 147 -36 44 -85 43 -126 -1z"/>
<path d="M3142 1745 c-28 -23 -29 -28 -35 -132 -12 -202 -55 -363 -145 -538
-150 -291 -426 -513 -747 -601 -92 -25 -115 -28 -285 -28 -169 0 -193 2 -283
27 -213 57 -388 159 -545 314 -79 79 -98 93 -125 93 -72 0 -105 -63 -67 -124
34 -56 183 -190 288 -260 233 -155 449 -220 732 -220 170 1 294 21 432 70 515
185 877 673 905 1220 7 144 2 169 -37 189 -40 21 -54 19 -88 -10z"/>
</g>
</svg>
