<svg width="40" height="40" viewBox="0 0 40 40" fill="none" xmlns="http://www.w3.org/2000/svg">
<path opacity="0.32" d="M3.00195 20.0015L6.5685 19.231C10.2987 18.9287 15.6049 19.0132 18.6981 19.4747L20.002 20.0015L21.3058 20.5283C24.399 20.9899 29.7052 21.0744 33.4354 20.7721L37.002 20.0015" stroke="#353535" stroke-linecap="round"/>
<path d="M3.00195 13.0042C3.00195 12.4519 2.55424 12.0042 2.00195 12.0042C1.44967 12.0042 1.00195 12.4519 1.00195 13.0042V27.0042C1.00195 27.5565 1.44967 28.0042 2.00195 28.0042C2.55424 28.0042 3.00195 27.5565 3.00195 27.0042V13.0042Z" fill="#353535"/>
<path d="M9 8.06733C9 7.51504 8.55228 7.06733 8 7.06733C7.44772 7.06733 7 7.51504 7 8.06733V28.0673C7 28.6196 7.44772 29.0673 8 29.0673C8.55228 29.0673 9 28.6196 9 28.0673V8.06733Z" fill="#353535"/>
<path d="M15 12.8047C15 12.2524 14.5523 11.8047 14 11.8047C13.4477 11.8047 13 12.2524 13 12.8047V26.8047C13 27.357 13.4477 27.8047 14 27.8047C14.5523 27.8047 15 27.357 15 26.8047V12.8047Z" fill="#353535"/>
<path d="M21.002 6.00415C21.002 5.45187 20.5542 5.00415 20.002 5.00415C19.4497 5.00415 19.002 5.45187 19.002 6.00415V34.0042C19.002 34.5564 19.4497 35.0042 20.002 35.0042C20.5542 35.0042 21.002 34.5564 21.002 34.0042V6.00415Z" fill="#353535"/>
<path d="M27 14.2019C27 13.6496 26.5523 13.2019 26 13.2019C25.4477 13.2019 25 13.6496 25 14.2019V28.2019C25 28.7542 25.4477 29.2019 26 29.2019C26.5523 29.2019 27 28.7542 27 28.2019V14.2019Z" fill="#353535"/>
<path d="M33 14.0465C33 13.4942 32.5523 13.0465 32 13.0465C31.4477 13.0465 31 13.4942 31 14.0465V36.0465C31 36.5988 31.4477 37.0465 32 37.0465C32.5523 37.0465 33 36.5988 33 36.0465V14.0465Z" fill="#353535"/>
<path d="M39.002 13.0042C39.002 12.4519 38.5542 12.0042 38.002 12.0042C37.4497 12.0042 37.002 12.4519 37.002 13.0042V27.0042C37.002 27.5565 37.4497 28.0042 38.002 28.0042C38.5542 28.0042 39.002 27.5565 39.002 27.0042V13.0042Z" fill="#353535"/>
</svg>
