<svg width="40" height="41" viewBox="0 0 40 41" fill="none" xmlns="http://www.w3.org/2000/svg">
<path opacity="0.32" d="M7 8.35718H3C1.89543 8.35718 1 9.25261 1 10.3572V36.0205C1 37.1251 1.89543 38.0205 3 38.0205H7C8.10457 38.0205 9 37.1251 9 36.0205V10.3572C9 9.25261 8.10457 8.35718 7 8.35718Z" fill="#353535"/>
<path d="M22 22.6891H18C16.8954 22.6891 16 23.5845 16 24.6891V36.8574C16 37.962 16.8954 38.8574 18 38.8574H22C23.1046 38.8574 24 37.962 24 36.8574V24.6891C24 23.5845 23.1046 22.6891 22 22.6891Z" fill="#353535"/>
<path opacity="0.32" d="M37 6.80048H33C31.8954 6.80048 31 7.69591 31 8.80048V37.1372C31 38.2417 31.8954 39.1372 33 39.1372H37C38.1046 39.1372 39 38.2417 39 37.1372V8.80048C39 7.69591 38.1046 6.80048 37 6.80048Z" fill="#353535"/>
</svg>
