<svg width="40" height="41" viewBox="0 0 40 41" fill="none" xmlns="http://www.w3.org/2000/svg">
<path opacity="0.32" d="M0 13.076C0 12.7999 0.223858 12.576 0.5 12.576C0.776142 12.576 1 12.7999 1 13.076V28.076C1 28.3522 0.776142 28.576 0.5 28.576C0.223858 28.576 0 28.3522 0 28.076V13.076Z" fill="#353535"/>
<path opacity="0.32" d="M40 13.076C40 12.7999 39.7761 12.576 39.5 12.576C39.2239 12.576 39 12.7999 39 13.076V28.076C39 28.3522 39.2239 28.576 39.5 28.576C39.7761 28.576 40 28.3522 40 28.076V13.076Z" fill="#353535"/>
<path opacity="0.32" d="M4 23.076C4 22.7999 4.22386 22.576 4.5 22.576C4.77614 22.576 5 22.7999 5 23.076V34.076C5 34.3522 4.77614 34.576 4.5 34.576C4.22386 34.576 4 34.3522 4 34.076V23.076Z" fill="#353535"/>
<path opacity="0.32" d="M36 23.076C36 22.7999 35.7761 22.576 35.5 22.576C35.2239 22.576 35 22.7999 35 23.076V34.0761C35 34.3522 35.2239 34.5761 35.5 34.5761C35.7761 34.5761 36 34.3522 36 34.0761V23.076Z" fill="#353535"/>
<path opacity="0.32" d="M8 27.076C8 26.7999 8.22386 26.576 8.5 26.576C8.77614 26.576 9 26.7999 9 27.076V36.076C9 36.3522 8.77614 36.576 8.5 36.576C8.22386 36.576 8 36.3522 8 36.076V27.076Z" fill="#353535"/>
<path opacity="0.32" d="M32 27.076C32 26.7999 31.7761 26.576 31.5 26.576C31.2239 26.576 31 26.7999 31 27.076V36.0761C31 36.3522 31.2239 36.5761 31.5 36.5761C31.7761 36.5761 32 36.3522 32 36.0761V27.076Z" fill="#353535"/>
<path opacity="0.32" d="M8 5.07605C8 4.79991 8.22386 4.57605 8.5 4.57605C8.77614 4.57605 9 4.79991 9 5.07605V14.076C9 14.3522 8.77614 14.576 8.5 14.576C8.22386 14.576 8 14.3522 8 14.076V5.07605Z" fill="#353535"/>
<path opacity="0.32" d="M32 5.07605C32 4.79991 31.7761 4.57605 31.5 4.57605C31.2239 4.57605 31 4.79991 31 5.07605V14.076C31 14.3522 31.2239 14.576 31.5 14.576C31.7761 14.576 32 14.3522 32 14.076V5.07605Z" fill="#353535"/>
<path opacity="0.32" d="M28 3.07605C28 2.79991 27.7761 2.57605 27.5 2.57605C27.2239 2.57605 27 2.79991 27 3.07605V8.07605C27 8.35219 27.2239 8.57605 27.5 8.57605C27.7761 8.57605 28 8.35219 28 8.07605V3.07605Z" fill="#353535"/>
<path opacity="0.32" d="M28 33.0761C28 32.7999 27.7761 32.576 27.5 32.576C27.2239 32.576 27 32.7999 27 33.0761V38.0761C27 38.3522 27.2239 38.5761 27.5 38.5761C27.7761 38.5761 28 38.3522 28 38.0761V33.0761Z" fill="#353535"/>
<path opacity="0.32" d="M13 3.07605C13 2.79991 12.7761 2.57605 12.5 2.57605C12.2239 2.57605 12 2.79991 12 3.07605V8.07605C12 8.35219 12.2239 8.57605 12.5 8.57605C12.7761 8.57605 13 8.35219 13 8.07605V3.07605Z" fill="#353535"/>
<path opacity="0.32" d="M13 33.0761C13 32.7999 12.7761 32.576 12.5 32.576C12.2239 32.576 12 32.7999 12 33.0761V38.0761C12 38.3522 12.2239 38.5761 12.5 38.5761C12.7761 38.5761 13 38.3522 13 38.0761V33.0761Z" fill="#353535"/>
<path opacity="0.32" d="M5 7.07605C5 6.79991 4.77614 6.57605 4.5 6.57605C4.22386 6.57605 4 6.79991 4 7.07605V18.076C4 18.3522 4.22386 18.576 4.5 18.576C4.77614 18.576 5 18.3522 5 18.076V7.07605Z" fill="#353535"/>
<path opacity="0.32" d="M35 7.07605C35 6.79991 35.2239 6.57605 35.5 6.57605C35.7761 6.57605 36 6.79991 36 7.07605V18.076C36 18.3522 35.7761 18.576 35.5 18.576C35.2239 18.576 35 18.3522 35 18.076V7.07605Z" fill="#353535"/>
<path d="M20 27.0414C23.5707 27.0414 26.4653 24.1467 26.4653 20.576C26.4653 17.0053 23.5707 14.1107 20 14.1107C16.4293 14.1107 13.5347 17.0053 13.5347 20.576C13.5347 24.1467 16.4293 27.0414 20 27.0414Z" fill="#353535"/>
</svg>
