<svg width="110" height="163" viewBox="0 0 110 163" fill="none" xmlns="http://www.w3.org/2000/svg">
<path d="M3 6.80005C4.65685 6.80005 6 5.4569 6 3.80005C6 2.14319 4.65685 0.800049 3 0.800049C1.34315 0.800049 0 2.14319 0 3.80005C0 5.4569 1.34315 6.80005 3 6.80005Z" fill="#4D4D4D"/>
<path d="M29 6.80005C30.6569 6.80005 32 5.4569 32 3.80005C32 2.14319 30.6569 0.800049 29 0.800049C27.3431 0.800049 26 2.14319 26 3.80005C26 5.4569 27.3431 6.80005 29 6.80005Z" fill="#4D4D4D"/>
<path d="M55 6.80005C56.6569 6.80005 58 5.4569 58 3.80005C58 2.14319 56.6569 0.800049 55 0.800049C53.3431 0.800049 52 2.14319 52 3.80005C52 5.4569 53.3431 6.80005 55 6.80005Z" fill="#4D4D4D"/>
<path d="M81 6.80005C82.6569 6.80005 84 5.4569 84 3.80005C84 2.14319 82.6569 0.800049 81 0.800049C79.3431 0.800049 78 2.14319 78 3.80005C78 5.4569 79.3431 6.80005 81 6.80005Z" fill="#4D4D4D"/>
<path d="M107 6.80005C108.657 6.80005 110 5.4569 110 3.80005C110 2.14319 108.657 0.800049 107 0.800049C105.343 0.800049 104 2.14319 104 3.80005C104 5.4569 105.343 6.80005 107 6.80005Z" fill="#4D4D4D"/>
<path d="M3 32.8C4.65685 32.8 6 31.4569 6 29.8C6 28.1432 4.65685 26.8 3 26.8C1.34315 26.8 0 28.1432 0 29.8C0 31.4569 1.34315 32.8 3 32.8Z" fill="#4D4D4D"/>
<path d="M29 32.8C30.6569 32.8 32 31.4569 32 29.8C32 28.1432 30.6569 26.8 29 26.8C27.3431 26.8 26 28.1432 26 29.8C26 31.4569 27.3431 32.8 29 32.8Z" fill="#4D4D4D"/>
<path d="M55 32.8C56.6569 32.8 58 31.4569 58 29.8C58 28.1432 56.6569 26.8 55 26.8C53.3431 26.8 52 28.1432 52 29.8C52 31.4569 53.3431 32.8 55 32.8Z" fill="#4D4D4D"/>
<path d="M81 32.8C82.6569 32.8 84 31.4569 84 29.8C84 28.1432 82.6569 26.8 81 26.8C79.3431 26.8 78 28.1432 78 29.8C78 31.4569 79.3431 32.8 81 32.8Z" fill="#4D4D4D"/>
<path d="M107 32.8C108.657 32.8 110 31.4569 110 29.8C110 28.1432 108.657 26.8 107 26.8C105.343 26.8 104 28.1432 104 29.8C104 31.4569 105.343 32.8 107 32.8Z" fill="#4D4D4D"/>
<path d="M3 58.8C4.65685 58.8 6 57.4569 6 55.8C6 54.1432 4.65685 52.8 3 52.8C1.34315 52.8 0 54.1432 0 55.8C0 57.4569 1.34315 58.8 3 58.8Z" fill="#4D4D4D"/>
<path d="M29 58.8C30.6569 58.8 32 57.4569 32 55.8C32 54.1432 30.6569 52.8 29 52.8C27.3431 52.8 26 54.1432 26 55.8C26 57.4569 27.3431 58.8 29 58.8Z" fill="#4D4D4D"/>
<path d="M55 58.8C56.6569 58.8 58 57.4569 58 55.8C58 54.1432 56.6569 52.8 55 52.8C53.3431 52.8 52 54.1432 52 55.8C52 57.4569 53.3431 58.8 55 58.8Z" fill="#4D4D4D"/>
<path d="M81 58.8C82.6569 58.8 84 57.4569 84 55.8C84 54.1432 82.6569 52.8 81 52.8C79.3431 52.8 78 54.1432 78 55.8C78 57.4569 79.3431 58.8 81 58.8Z" fill="#4D4D4D"/>
<path d="M107 58.8C108.657 58.8 110 57.4569 110 55.8C110 54.1432 108.657 52.8 107 52.8C105.343 52.8 104 54.1432 104 55.8C104 57.4569 105.343 58.8 107 58.8Z" fill="#4D4D4D"/>
<path d="M3 84.8C4.65685 84.8 6 83.4569 6 81.8C6 80.1432 4.65685 78.8 3 78.8C1.34315 78.8 0 80.1432 0 81.8C0 83.4569 1.34315 84.8 3 84.8Z" fill="#4D4D4D"/>
<path d="M29 84.8C30.6569 84.8 32 83.4569 32 81.8C32 80.1432 30.6569 78.8 29 78.8C27.3431 78.8 26 80.1432 26 81.8C26 83.4569 27.3431 84.8 29 84.8Z" fill="#4D4D4D"/>
<path d="M55 84.8C56.6569 84.8 58 83.4569 58 81.8C58 80.1432 56.6569 78.8 55 78.8C53.3431 78.8 52 80.1432 52 81.8C52 83.4569 53.3431 84.8 55 84.8Z" fill="#4D4D4D"/>
<path d="M81 84.8C82.6569 84.8 84 83.4569 84 81.8C84 80.1432 82.6569 78.8 81 78.8C79.3431 78.8 78 80.1432 78 81.8C78 83.4569 79.3431 84.8 81 84.8Z" fill="#4D4D4D"/>
<path d="M107 84.8C108.657 84.8 110 83.4569 110 81.8C110 80.1432 108.657 78.8 107 78.8C105.343 78.8 104 80.1432 104 81.8C104 83.4569 105.343 84.8 107 84.8Z" fill="#4D4D4D"/>
<path d="M3 110.8C4.65685 110.8 6 109.457 6 107.8C6 106.143 4.65685 104.8 3 104.8C1.34315 104.8 0 106.143 0 107.8C0 109.457 1.34315 110.8 3 110.8Z" fill="#4D4D4D"/>
<path d="M29 110.8C30.6569 110.8 32 109.457 32 107.8C32 106.143 30.6569 104.8 29 104.8C27.3431 104.8 26 106.143 26 107.8C26 109.457 27.3431 110.8 29 110.8Z" fill="#4D4D4D"/>
<path d="M55 110.8C56.6569 110.8 58 109.457 58 107.8C58 106.143 56.6569 104.8 55 104.8C53.3431 104.8 52 106.143 52 107.8C52 109.457 53.3431 110.8 55 110.8Z" fill="#4D4D4D"/>
<path d="M81 110.8C82.6569 110.8 84 109.457 84 107.8C84 106.143 82.6569 104.8 81 104.8C79.3431 104.8 78 106.143 78 107.8C78 109.457 79.3431 110.8 81 110.8Z" fill="#4D4D4D"/>
<path d="M107 110.8C108.657 110.8 110 109.457 110 107.8C110 106.143 108.657 104.8 107 104.8C105.343 104.8 104 106.143 104 107.8C104 109.457 105.343 110.8 107 110.8Z" fill="#4D4D4D"/>
<path d="M3 136.8C4.65685 136.8 6 135.457 6 133.8C6 132.143 4.65685 130.8 3 130.8C1.34315 130.8 0 132.143 0 133.8C0 135.457 1.34315 136.8 3 136.8Z" fill="#4D4D4D"/>
<path d="M29 136.8C30.6569 136.8 32 135.457 32 133.8C32 132.143 30.6569 130.8 29 130.8C27.3431 130.8 26 132.143 26 133.8C26 135.457 27.3431 136.8 29 136.8Z" fill="#4D4D4D"/>
<path d="M55 136.8C56.6569 136.8 58 135.457 58 133.8C58 132.143 56.6569 130.8 55 130.8C53.3431 130.8 52 132.143 52 133.8C52 135.457 53.3431 136.8 55 136.8Z" fill="#4D4D4D"/>
<path d="M81 136.8C82.6569 136.8 84 135.457 84 133.8C84 132.143 82.6569 130.8 81 130.8C79.3431 130.8 78 132.143 78 133.8C78 135.457 79.3431 136.8 81 136.8Z" fill="#4D4D4D"/>
<path d="M107 136.8C108.657 136.8 110 135.457 110 133.8C110 132.143 108.657 130.8 107 130.8C105.343 130.8 104 132.143 104 133.8C104 135.457 105.343 136.8 107 136.8Z" fill="#4D4D4D"/>
<path d="M3 162.8C4.65685 162.8 6 161.457 6 159.8C6 158.143 4.65685 156.8 3 156.8C1.34315 156.8 0 158.143 0 159.8C0 161.457 1.34315 162.8 3 162.8Z" fill="#4D4D4D"/>
<path d="M29 162.8C30.6569 162.8 32 161.457 32 159.8C32 158.143 30.6569 156.8 29 156.8C27.3431 156.8 26 158.143 26 159.8C26 161.457 27.3431 162.8 29 162.8Z" fill="#4D4D4D"/>
<path d="M55 162.8C56.6569 162.8 58 161.457 58 159.8C58 158.143 56.6569 156.8 55 156.8C53.3431 156.8 52 158.143 52 159.8C52 161.457 53.3431 162.8 55 162.8Z" fill="#4D4D4D"/>
<path d="M81 162.8C82.6569 162.8 84 161.457 84 159.8C84 158.143 82.6569 156.8 81 156.8C79.3431 156.8 78 158.143 78 159.8C78 161.457 79.3431 162.8 81 162.8Z" fill="#4D4D4D"/>
<path d="M107 162.8C108.657 162.8 110 161.457 110 159.8C110 158.143 108.657 156.8 107 156.8C105.343 156.8 104 158.143 104 159.8C104 161.457 105.343 162.8 107 162.8Z" fill="#4D4D4D"/>
</svg>
