<?xml version="1.0" encoding="iso-8859-1"?>
<!-- Uploaded to: SVG Repo, www.svgrepo.com, Generator: SVG Repo Mixer Tools -->
<svg fill="#000000" height="800px" width="800px" version="1.1" id="Layer_1" xmlns="http://www.w3.org/2000/svg" xmlns:xlink="http://www.w3.org/1999/xlink" 
	 viewBox="0 0 512 512" xml:space="preserve">
<g>
	<g>
		<path d="M373.107,0H84.425C61.899,0,43.574,18.326,43.574,40.851v375.83c0,22.526,18.325,40.851,40.851,40.851h136.177
			c4.512,0,8.17-3.658,8.17-8.17s-3.658-8.17-8.171-8.17H84.425c-13.516,0-24.511-10.995-24.511-24.511V40.851
			c0-13.515,10.995-24.511,24.511-24.511h57.192v73.532c0,13.515,10.995,24.511,24.511,24.511h125.277
			c13.515,0,24.511-10.996,24.511-24.511V16.34h57.192c13.515,0,24.511,10.996,24.511,24.511v223.325c0,4.512,3.657,8.17,8.17,8.17
			s8.17-3.658,8.17-8.17V40.851C413.958,18.326,395.631,0,373.107,0z M299.575,89.873c0,4.505-3.666,8.17-8.17,8.17H166.127
			c-4.506,0-8.17-3.666-8.17-8.17V70.809h141.617V89.873z M299.575,54.468H157.957V16.34h141.617V54.468z"/>
	</g>
</g>
<g>
	<g>
		<path d="M211.379,408.51H92.595V49.021h23.965c4.512,0,8.17-3.658,8.17-8.17s-3.658-8.17-8.17-8.17H84.425
			c-4.512,0-8.17,3.658-8.17,8.17v375.83c0,4.512,3.658,8.17,8.17,8.17h126.953c4.512,0,8.17-3.658,8.17-8.17
			S215.891,408.51,211.379,408.51z"/>
	</g>
</g>
<g>
	<g>
		<path d="M373.107,32.681h-32.681c-4.513,0-8.17,3.658-8.17,8.17s3.657,8.17,8.17,8.17h24.511v205.931
			c0,4.512,3.657,8.17,8.17,8.17s8.17-3.658,8.17-8.17V40.851C381.277,36.339,377.62,32.681,373.107,32.681z"/>
	</g>
</g>
<g>
	<g>
		<path d="M307.745,177.022H149.787c-4.512,0-8.17,3.658-8.17,8.17s3.658,8.17,8.17,8.17h157.958c4.513,0,8.17-3.658,8.17-8.17
			S312.257,177.022,307.745,177.022z"/>
	</g>
</g>
<g>
	<g>
		<path d="M307.745,220.596H149.787c-4.512,0-8.17,3.658-8.17,8.17c0,4.512,3.658,8.17,8.17,8.17h157.958
			c4.512,0,8.17-3.658,8.17-8.17C315.915,224.254,312.258,220.596,307.745,220.596z"/>
	</g>
</g>
<g>
	<g>
		<path d="M228.766,264.171h-78.979c-4.512,0-8.17,3.658-8.17,8.17s3.658,8.17,8.17,8.17h78.979c4.512,0,8.17-3.658,8.17-8.17
			S233.278,264.171,228.766,264.171z"/>
	</g>
</g>
<g>
	<g>
		<path d="M351.319,277.787c-64.572,0-117.107,52.534-117.107,117.107S286.747,512,351.319,512s117.107-52.534,117.107-117.107
			S415.891,277.787,351.319,277.787z M351.319,495.66c-55.563,0-100.766-45.203-100.766-100.766
			c0-55.563,45.203-100.766,100.766-100.766c55.563,0,100.766,45.203,100.766,100.766
			C452.086,450.456,406.882,495.66,351.319,495.66z"/>
	</g>
</g>
<g>
	<g>
		<path d="M405.788,370.383H375.83v-29.958c0-13.516-10.996-24.511-24.511-24.511s-24.511,10.995-24.511,24.511v29.958h-29.958
			c-13.515,0-24.511,10.995-24.511,24.511s10.996,24.511,24.511,24.511h29.958v29.958c0,13.516,10.996,24.511,24.511,24.511
			s24.511-10.995,24.511-24.511v-29.958h29.957c13.515,0,24.511-10.995,24.511-24.511S419.302,370.383,405.788,370.383z
			 M405.788,403.064H367.66c-4.513,0-8.17,3.658-8.17,8.17v38.128c0,4.506-3.665,8.17-8.17,8.17c-4.506,0-8.17-3.665-8.17-8.17
			v-38.128c0-4.512-3.657-8.17-8.17-8.17h-38.128c-4.506,0-8.17-3.665-8.17-8.17s3.665-8.17,8.17-8.17h38.128
			c4.513,0,8.17-3.658,8.17-8.17v-38.128c0-4.506,3.665-8.17,8.17-8.17c4.506,0,8.17,3.665,8.17,8.17v38.128
			c0,4.512,3.657,8.17,8.17,8.17h38.128c4.506,0,8.17,3.665,8.17,8.17S410.292,403.064,405.788,403.064z"/>
	</g>
</g>
</svg>