<svg width="415" height="843" viewBox="0 0 415 843" fill="none" xmlns="http://www.w3.org/2000/svg">
<path d="M0 123C0 121.895 0.895431 121 2 121H5V152H2C0.89543 152 0 151.105 0 150V123Z" fill="#89979E"/>
<path opacity="0.4" d="M0 123C0 121.895 0.895431 121 2 121H5V152H2C0.89543 152 0 151.105 0 150V123Z" fill="url(#paint0_linear_204_4)"/>
<path opacity="0.4" d="M0 123C0 121.895 0.895431 121 2 121H5V152H2C0.89543 152 0 151.105 0 150V123Z" fill="url(#paint1_linear_204_4)"/>
<path opacity="0.4" d="M0 123C0 121.895 0.895431 121 2 121H5V152H2C0.89543 152 0 151.105 0 150V123Z" fill="url(#paint2_linear_204_4)"/>
<g filter="url(#filter0_f_204_4)">
<path d="M1 122.5C1 122.224 1.22386 122 1.5 122C1.77614 122 2 122.224 2 122.5V124H1V122.5Z" fill="white"/>
</g>
<g filter="url(#filter1_f_204_4)">
<path d="M1 124H2V149.5C2 149.776 1.77614 150 1.5 150C1.22386 150 1 149.776 1 149.5V124Z" fill="white" fill-opacity="0.8"/>
</g>
<path d="M0 184C0 182.895 0.895431 182 2 182H5V246H2C0.89543 246 0 245.105 0 244V184Z" fill="#89979E"/>
<path opacity="0.4" d="M0 184C0 182.895 0.895431 182 2 182H5V246H2C0.89543 246 0 245.105 0 244V184Z" fill="url(#paint3_linear_204_4)"/>
<path opacity="0.4" d="M0 184C0 182.895 0.895431 182 2 182H5V246H2C0.89543 246 0 245.105 0 244V184Z" fill="url(#paint4_linear_204_4)"/>
<path opacity="0.4" d="M0 184C0 182.895 0.895431 182 2 182H5V246H2C0.89543 246 0 245.105 0 244V184Z" fill="url(#paint5_linear_204_4)"/>
<g filter="url(#filter2_f_204_4)">
<path d="M1 184.5C1 184.224 1.22386 184 1.5 184C1.77614 184 2 184.224 2 184.5V186H1V184.5Z" fill="white"/>
</g>
<g filter="url(#filter3_f_204_4)">
<path d="M1 186H2V243.5C2 243.776 1.77614 244 1.5 244C1.22386 244 1 243.776 1 243.5V186Z" fill="white" fill-opacity="0.8"/>
</g>
<path d="M0 264C0 262.895 0.895431 262 2 262H5V326H2C0.89543 326 0 325.105 0 324V264Z" fill="#89979E"/>
<path opacity="0.4" d="M0 264C0 262.895 0.895431 262 2 262H5V326H2C0.89543 326 0 325.105 0 324V264Z" fill="url(#paint6_linear_204_4)"/>
<path opacity="0.4" d="M0 264C0 262.895 0.895431 262 2 262H5V326H2C0.89543 326 0 325.105 0 324V264Z" fill="url(#paint7_linear_204_4)"/>
<path opacity="0.4" d="M0 264C0 262.895 0.895431 262 2 262H5V326H2C0.89543 326 0 325.105 0 324V264Z" fill="url(#paint8_linear_204_4)"/>
<g filter="url(#filter4_f_204_4)">
<path d="M1 264.5C1 264.224 1.22386 264 1.5 264C1.77614 264 2 264.224 2 264.5V266H1V264.5Z" fill="white"/>
</g>
<g filter="url(#filter5_f_204_4)">
<path d="M1 266H2V323.5C2 323.776 1.77614 324 1.5 324C1.22386 324 1 323.776 1 323.5V266Z" fill="white" fill-opacity="0.8"/>
</g>
<path d="M415 206C415 204.895 414.105 204 413 204H410V303H413C414.105 303 415 302.105 415 301V206Z" fill="#89979E"/>
<path opacity="0.4" d="M415 206C415 204.895 414.105 204 413 204H410V303H413C414.105 303 415 302.105 415 301V206Z" fill="url(#paint9_linear_204_4)"/>
<path opacity="0.4" d="M415 206C415 204.895 414.105 204 413 204H410V303H413C414.105 303 415 302.105 415 301V206Z" fill="url(#paint10_linear_204_4)"/>
<path opacity="0.4" d="M415 206C415 204.895 414.105 204 413 204H410V303H413C414.105 303 415 302.105 415 301V206Z" fill="url(#paint11_linear_204_4)"/>
<g filter="url(#filter6_f_204_4)">
<path d="M414 206.5C414 206.224 413.776 206 413.5 206C413.224 206 413 206.224 413 206.5V208H414V206.5Z" fill="white"/>
</g>
<g filter="url(#filter7_f_204_4)">
<path d="M414 208H413V300.5C413 300.776 413.224 301 413.5 301C413.776 301 414 300.776 414 300.5V208Z" fill="white" fill-opacity="0.8"/>
</g>
<g clip-path="url(#clip0_204_4)">
<rect x="5" width="409" height="843" rx="68" fill="#E4EDF2"/>
<g filter="url(#filter8_f_204_4)">
<rect x="6.5" y="1.5" width="406" height="840" rx="66.5" stroke="#364348" stroke-width="3"/>
</g>
<g filter="url(#filter9_f_204_4)">
<rect x="5.5" y="0.5" width="408" height="842" rx="67.5" stroke="#404D52"/>
</g>
<g filter="url(#filter10_f_204_4)">
<rect x="10.5" y="5.5" width="398" height="831" rx="62.5" stroke="white"/>
</g>
<rect x="10.8" y="5.8" width="397.4" height="830.4" rx="62.2" stroke="white" stroke-width="0.4"/>
<g clip-path="url(#clip1_204_4)">
<rect x="10" y="7" width="397" height="830" rx="62" fill="#000100"/>
<g filter="url(#filter11_f_204_4)">
<rect x="12" y="9" width="393" height="826" rx="60" stroke="url(#paint12_radial_204_4)" stroke-width="4"/>
</g>
</g>
</g>
<rect x="143" y="811" width="132" height="5" rx="2.5" fill="white"/>
<defs>
<filter id="filter0_f_204_4" x="0" y="121" width="3" height="4" filterUnits="userSpaceOnUse" color-interpolation-filters="sRGB">
<feFlood flood-opacity="0" result="BackgroundImageFix"/>
<feBlend mode="normal" in="SourceGraphic" in2="BackgroundImageFix" result="shape"/>
<feGaussianBlur stdDeviation="0.5" result="effect1_foregroundBlur_204_4"/>
</filter>
<filter id="filter1_f_204_4" x="0" y="123" width="3" height="28" filterUnits="userSpaceOnUse" color-interpolation-filters="sRGB">
<feFlood flood-opacity="0" result="BackgroundImageFix"/>
<feBlend mode="normal" in="SourceGraphic" in2="BackgroundImageFix" result="shape"/>
<feGaussianBlur stdDeviation="0.5" result="effect1_foregroundBlur_204_4"/>
</filter>
<filter id="filter2_f_204_4" x="0" y="183" width="3" height="4" filterUnits="userSpaceOnUse" color-interpolation-filters="sRGB">
<feFlood flood-opacity="0" result="BackgroundImageFix"/>
<feBlend mode="normal" in="SourceGraphic" in2="BackgroundImageFix" result="shape"/>
<feGaussianBlur stdDeviation="0.5" result="effect1_foregroundBlur_204_4"/>
</filter>
<filter id="filter3_f_204_4" x="0" y="185" width="3" height="60" filterUnits="userSpaceOnUse" color-interpolation-filters="sRGB">
<feFlood flood-opacity="0" result="BackgroundImageFix"/>
<feBlend mode="normal" in="SourceGraphic" in2="BackgroundImageFix" result="shape"/>
<feGaussianBlur stdDeviation="0.5" result="effect1_foregroundBlur_204_4"/>
</filter>
<filter id="filter4_f_204_4" x="0" y="263" width="3" height="4" filterUnits="userSpaceOnUse" color-interpolation-filters="sRGB">
<feFlood flood-opacity="0" result="BackgroundImageFix"/>
<feBlend mode="normal" in="SourceGraphic" in2="BackgroundImageFix" result="shape"/>
<feGaussianBlur stdDeviation="0.5" result="effect1_foregroundBlur_204_4"/>
</filter>
<filter id="filter5_f_204_4" x="0" y="265" width="3" height="60" filterUnits="userSpaceOnUse" color-interpolation-filters="sRGB">
<feFlood flood-opacity="0" result="BackgroundImageFix"/>
<feBlend mode="normal" in="SourceGraphic" in2="BackgroundImageFix" result="shape"/>
<feGaussianBlur stdDeviation="0.5" result="effect1_foregroundBlur_204_4"/>
</filter>
<filter id="filter6_f_204_4" x="412" y="205" width="3" height="4" filterUnits="userSpaceOnUse" color-interpolation-filters="sRGB">
<feFlood flood-opacity="0" result="BackgroundImageFix"/>
<feBlend mode="normal" in="SourceGraphic" in2="BackgroundImageFix" result="shape"/>
<feGaussianBlur stdDeviation="0.5" result="effect1_foregroundBlur_204_4"/>
</filter>
<filter id="filter7_f_204_4" x="412" y="207" width="3" height="95" filterUnits="userSpaceOnUse" color-interpolation-filters="sRGB">
<feFlood flood-opacity="0" result="BackgroundImageFix"/>
<feBlend mode="normal" in="SourceGraphic" in2="BackgroundImageFix" result="shape"/>
<feGaussianBlur stdDeviation="0.5" result="effect1_foregroundBlur_204_4"/>
</filter>
<filter id="filter8_f_204_4" x="1" y="-4" width="417" height="851" filterUnits="userSpaceOnUse" color-interpolation-filters="sRGB">
<feFlood flood-opacity="0" result="BackgroundImageFix"/>
<feBlend mode="normal" in="SourceGraphic" in2="BackgroundImageFix" result="shape"/>
<feGaussianBlur stdDeviation="2" result="effect1_foregroundBlur_204_4"/>
</filter>
<filter id="filter9_f_204_4" x="3" y="-2" width="413" height="847" filterUnits="userSpaceOnUse" color-interpolation-filters="sRGB">
<feFlood flood-opacity="0" result="BackgroundImageFix"/>
<feBlend mode="normal" in="SourceGraphic" in2="BackgroundImageFix" result="shape"/>
<feGaussianBlur stdDeviation="1" result="effect1_foregroundBlur_204_4"/>
</filter>
<filter id="filter10_f_204_4" x="8" y="3" width="403" height="836" filterUnits="userSpaceOnUse" color-interpolation-filters="sRGB">
<feFlood flood-opacity="0" result="BackgroundImageFix"/>
<feBlend mode="normal" in="SourceGraphic" in2="BackgroundImageFix" result="shape"/>
<feGaussianBlur stdDeviation="1" result="effect1_foregroundBlur_204_4"/>
</filter>
<filter id="filter11_f_204_4" x="3" y="0" width="411" height="844" filterUnits="userSpaceOnUse" color-interpolation-filters="sRGB">
<feFlood flood-opacity="0" result="BackgroundImageFix"/>
<feBlend mode="normal" in="SourceGraphic" in2="BackgroundImageFix" result="shape"/>
<feGaussianBlur stdDeviation="3.5" result="effect1_foregroundBlur_204_4"/>
</filter>
<linearGradient id="paint0_linear_204_4" x1="2.5" y1="121" x2="2.5" y2="124.263" gradientUnits="userSpaceOnUse">
<stop/>
<stop offset="1" stop-opacity="0"/>
</linearGradient>
<linearGradient id="paint1_linear_204_4" x1="5" y1="121" x2="1.5" y2="121" gradientUnits="userSpaceOnUse">
<stop/>
<stop offset="1" stop-color="#AEAEAE" stop-opacity="0"/>
</linearGradient>
<linearGradient id="paint2_linear_204_4" x1="2.5" y1="146.697" x2="2.5" y2="152" gradientUnits="userSpaceOnUse">
<stop stop-opacity="0"/>
<stop offset="1"/>
</linearGradient>
<linearGradient id="paint3_linear_204_4" x1="2.5" y1="182" x2="2.5" y2="186" gradientUnits="userSpaceOnUse">
<stop/>
<stop offset="1" stop-opacity="0"/>
</linearGradient>
<linearGradient id="paint4_linear_204_4" x1="5" y1="182" x2="1.5" y2="182" gradientUnits="userSpaceOnUse">
<stop/>
<stop offset="1" stop-color="#AEAEAE" stop-opacity="0"/>
</linearGradient>
<linearGradient id="paint5_linear_204_4" x1="2.5" y1="240.5" x2="2.5" y2="246" gradientUnits="userSpaceOnUse">
<stop stop-opacity="0"/>
<stop offset="1"/>
</linearGradient>
<linearGradient id="paint6_linear_204_4" x1="2.5" y1="262" x2="2.5" y2="266" gradientUnits="userSpaceOnUse">
<stop/>
<stop offset="1" stop-opacity="0"/>
</linearGradient>
<linearGradient id="paint7_linear_204_4" x1="5" y1="262" x2="1.5" y2="262" gradientUnits="userSpaceOnUse">
<stop/>
<stop offset="1" stop-color="#AEAEAE" stop-opacity="0"/>
</linearGradient>
<linearGradient id="paint8_linear_204_4" x1="2.5" y1="320.5" x2="2.5" y2="326" gradientUnits="userSpaceOnUse">
<stop stop-opacity="0"/>
<stop offset="1"/>
</linearGradient>
<linearGradient id="paint9_linear_204_4" x1="412.5" y1="204" x2="412.5" y2="208" gradientUnits="userSpaceOnUse">
<stop/>
<stop offset="1" stop-opacity="0"/>
</linearGradient>
<linearGradient id="paint10_linear_204_4" x1="410" y1="204" x2="413.5" y2="204" gradientUnits="userSpaceOnUse">
<stop/>
<stop offset="1" stop-color="#AEAEAE" stop-opacity="0"/>
</linearGradient>
<linearGradient id="paint11_linear_204_4" x1="412.5" y1="298.5" x2="412.5" y2="303" gradientUnits="userSpaceOnUse">
<stop stop-opacity="0"/>
<stop offset="1"/>
</linearGradient>
<radialGradient id="paint12_radial_204_4" cx="0" cy="0" r="1" gradientUnits="userSpaceOnUse" gradientTransform="translate(209 198.5) rotate(90) scale(340 379.321)">
<stop stop-color="#879194"/>
<stop offset="1"/>
</radialGradient>
<clipPath id="clip0_204_4">
<rect x="5" width="409" height="843" rx="68" fill="white"/>
</clipPath>
<clipPath id="clip1_204_4">
<rect x="10" y="7" width="397" height="830" rx="62" fill="white"/>
</clipPath>
</defs>
</svg>
