<svg width="50" height="51" viewBox="0 0 50 51" fill="none" xmlns="http://www.w3.org/2000/svg">
<path d="M27.1849 39.8285C24.3427 40.2776 21.4312 39.8399 18.8465 38.5752C16.2619 37.3105 14.1298 35.28 12.7403 32.7602C11.3509 30.2405 10.7716 27.3538 11.0814 24.493C11.3911 21.6323 12.5748 18.9364 14.4714 16.7725" stroke="#1E1404" stroke-width="3" stroke-linecap="round"/>
<path d="M23.7693 12.0541C26.6356 11.8011 29.5103 12.4375 32.002 13.8767C34.4937 15.3158 36.4815 17.4878 37.6947 20.097C38.908 22.7062 39.2878 25.6258 38.7824 28.4586C38.2771 31.2913 36.9112 33.8995 34.8705 35.9283" stroke="#1E1404" stroke-width="3" stroke-linecap="round"/>
<path d="M47.9965 25C48.0782 29.8359 46.7201 34.5809 44.1063 38.592C41.4926 42.6032 37.7494 45.6866 33.3841 47.4246C29.0188 49.1625 24.2423 49.4709 19.7018 48.3081C15.1612 47.1453 11.0761 44.5673 8 40.9236" stroke="#1E1404" stroke-width="3" stroke-linecap="round"/>
<path d="M2.02069 28.0919C1.53117 23.3405 2.51408 18.5534 4.83625 14.3793C7.15842 10.2052 10.7076 6.84578 15.0029 4.75627C19.2982 2.66676 24.132 1.94815 28.8494 2.69778C33.5668 3.44742 37.9397 5.62907 41.3757 8.94715" stroke="#1E1404" stroke-width="3" stroke-linecap="round"/>
</svg>
