<svg width="66" height="66" viewBox="0 0 66 66" fill="none" xmlns="http://www.w3.org/2000/svg">
<circle cx="33" cy="33" r="33" fill="white"/>
<path d="M35.1849 46.8285C32.3427 47.2776 29.4312 46.8399 26.8465 45.5752C24.2619 44.3105 22.1298 42.28 20.7403 39.7602C19.3509 37.2405 18.7716 34.3538 19.0814 31.493C19.3911 28.6323 20.5748 25.9364 22.4714 23.7725" stroke="#1E1404" stroke-width="3" stroke-linecap="round"/>
<path d="M31.7693 19.0541C34.6356 18.8011 37.5103 19.4375 40.002 20.8767C42.4937 22.3158 44.4815 24.4878 45.6947 27.097C46.908 29.7062 47.2878 32.6258 46.7824 35.4586C46.2771 38.2913 44.9112 40.8995 42.8705 42.9283" stroke="#1E1404" stroke-width="3" stroke-linecap="round"/>
<path d="M55.9965 32C56.0782 36.8359 54.7201 41.5809 52.1063 45.592C49.4926 49.6032 45.7494 52.6866 41.3841 54.4246C37.0188 56.1625 32.2423 56.4709 27.7018 55.3081C23.1612 54.1453 19.0761 51.5673 16 47.9236" stroke="#1E1404" stroke-width="3" stroke-linecap="round"/>
<path d="M10.0207 35.0919C9.53117 30.3405 10.5141 25.5534 12.8363 21.3793C15.1584 17.2052 18.7076 13.8458 23.0029 11.7563C27.2982 9.66676 32.132 8.94815 36.8494 9.69778C41.5668 10.4474 45.9397 12.6291 49.3757 15.9472" stroke="#1E1404" stroke-width="3" stroke-linecap="round"/>
</svg>
