<svg width="179" height="61" viewBox="0 0 179 61" fill="none" xmlns="http://www.w3.org/2000/svg">
<path d="M61.424 49C60.944 49 60.48 48.888 60.032 48.664C59.616 48.408 59.408 48.04 59.408 47.56V15.88C59.408 15.144 59.616 14.632 60.032 14.344C60.48 14.056 60.944 13.912 61.424 13.912C61.936 13.912 62.368 14.008 62.72 14.2C63.104 14.392 63.44 14.68 63.728 15.064C64.048 15.416 64.352 15.88 64.64 16.456L72.224 30.904L79.808 16.456C80.128 15.88 80.432 15.416 80.72 15.064C81.04 14.68 81.376 14.392 81.728 14.2C82.112 14.008 82.544 13.912 83.024 13.912C83.568 13.912 84.032 14.056 84.416 14.344C84.832 14.632 85.04 15.144 85.04 15.88V47.56C85.04 48.04 84.832 48.408 84.416 48.664C84 48.888 83.536 49 83.024 49C82.512 49 82.048 48.888 81.632 48.664C81.216 48.408 81.008 48.04 81.008 47.56V22.36L73.712 35.992C73.488 36.376 73.248 36.664 72.992 36.856C72.736 37.016 72.464 37.096 72.176 37.096C71.952 37.096 71.696 37.016 71.408 36.856C71.152 36.696 70.912 36.408 70.688 35.992L63.44 22.168V47.56C63.44 48.04 63.232 48.408 62.816 48.664C62.4 48.888 61.936 49 61.424 49ZM100.969 49.384C98.8889 49.384 97.0489 49 95.4489 48.232C93.8489 47.432 92.5849 46.344 91.6569 44.968C90.7289 43.56 90.2649 41.928 90.2649 40.072V35.032C90.2649 33.4 90.6969 31.896 91.5609 30.52C92.4569 29.144 93.6249 28.04 95.0649 27.208C96.5049 26.376 98.0889 25.96 99.8169 25.96C101.481 25.96 103.001 26.344 104.377 27.112C105.785 27.88 106.905 28.92 107.737 30.232C108.601 31.544 109.033 33.064 109.033 34.792C109.033 36.072 108.825 37 108.409 37.576C107.993 38.12 107.465 38.456 106.825 38.584C106.185 38.712 105.513 38.776 104.809 38.776H94.2489V40.216C94.2489 42.008 94.8889 43.432 96.1689 44.488C97.4489 45.512 99.0969 46.024 101.113 46.024C102.297 46.024 103.241 45.864 103.945 45.544C104.649 45.224 105.225 44.92 105.673 44.632C106.121 44.312 106.521 44.152 106.873 44.152C107.225 44.152 107.513 44.264 107.737 44.488C107.993 44.68 108.185 44.92 108.313 45.208C108.441 45.496 108.505 45.752 108.505 45.976C108.505 46.392 108.201 46.872 107.593 47.416C106.985 47.928 106.105 48.392 104.953 48.808C103.833 49.192 102.505 49.384 100.969 49.384ZM94.2489 36.088H103.129C103.993 36.088 104.553 35.992 104.809 35.8C105.097 35.576 105.241 35.16 105.241 34.552C105.241 33.592 105.001 32.712 104.521 31.912C104.073 31.08 103.433 30.408 102.601 29.896C101.769 29.384 100.825 29.128 99.7689 29.128C98.7769 29.128 97.8649 29.368 97.0329 29.848C96.2009 30.296 95.5289 30.92 95.0169 31.72C94.5049 32.52 94.2489 33.4 94.2489 34.36V36.088ZM121.073 49.384C119.569 49.384 118.161 48.952 116.849 48.088C115.569 47.192 114.529 46.04 113.729 44.632C112.961 43.192 112.577 41.672 112.577 40.072V35.176C112.577 33.48 112.961 31.944 113.729 30.568C114.529 29.192 115.569 28.088 116.849 27.256C118.161 26.392 119.601 25.96 121.169 25.96C122.705 25.96 124.001 26.344 125.057 27.112C126.145 27.848 126.945 28.68 127.457 29.608V13.912C127.457 13.496 127.649 13.16 128.033 12.904C128.449 12.648 128.945 12.52 129.521 12.52C130.097 12.52 130.561 12.648 130.913 12.904C131.265 13.16 131.441 13.496 131.441 13.912V47.56C131.441 47.912 131.265 48.248 130.913 48.568C130.561 48.856 130.097 49 129.521 49C129.009 49 128.561 48.856 128.177 48.568C127.825 48.248 127.649 47.912 127.649 47.56V45.64C127.169 46.632 126.321 47.512 125.105 48.28C123.889 49.016 122.545 49.384 121.073 49.384ZM122.033 45.784C123.057 45.784 123.969 45.512 124.769 44.968C125.601 44.392 126.257 43.752 126.737 43.048C127.217 42.344 127.457 41.784 127.457 41.368V35.176C127.457 33.992 127.185 33 126.641 32.2C126.129 31.368 125.457 30.728 124.625 30.28C123.793 29.8 122.945 29.56 122.081 29.56C121.057 29.56 120.129 29.832 119.297 30.376C118.465 30.92 117.793 31.624 117.281 32.488C116.801 33.352 116.561 34.248 116.561 35.176V40.072C116.561 41 116.801 41.912 117.281 42.808C117.793 43.704 118.465 44.424 119.297 44.968C120.129 45.512 121.041 45.784 122.033 45.784ZM144.792 49.384C143.288 49.384 141.88 48.952 140.568 48.088C139.288 47.192 138.248 46.04 137.448 44.632C136.68 43.192 136.296 41.672 136.296 40.072V35.176C136.296 33.48 136.68 31.944 137.448 30.568C138.248 29.192 139.288 28.088 140.568 27.256C141.88 26.392 143.32 25.96 144.888 25.96C146.424 25.96 147.72 26.344 148.776 27.112C149.864 27.848 150.664 28.68 151.176 29.608V13.912C151.176 13.496 151.368 13.16 151.752 12.904C152.168 12.648 152.664 12.52 153.24 12.52C153.816 12.52 154.28 12.648 154.632 12.904C154.984 13.16 155.16 13.496 155.16 13.912V47.56C155.16 47.912 154.984 48.248 154.632 48.568C154.28 48.856 153.816 49 153.24 49C152.728 49 152.28 48.856 151.896 48.568C151.544 48.248 151.368 47.912 151.368 47.56V45.64C150.888 46.632 150.04 47.512 148.824 48.28C147.608 49.016 146.264 49.384 144.792 49.384ZM145.752 45.784C146.776 45.784 147.688 45.512 148.488 44.968C149.32 44.392 149.976 43.752 150.456 43.048C150.936 42.344 151.176 41.784 151.176 41.368V35.176C151.176 33.992 150.904 33 150.36 32.2C149.848 31.368 149.176 30.728 148.344 30.28C147.512 29.8 146.664 29.56 145.8 29.56C144.776 29.56 143.848 29.832 143.016 30.376C142.184 30.92 141.512 31.624 141 32.488C140.52 33.352 140.28 34.248 140.28 35.176V40.072C140.28 41 140.52 41.912 141 42.808C141.512 43.704 142.184 44.424 143.016 44.968C143.848 45.512 144.76 45.784 145.752 45.784ZM160.447 59.992C159.935 59.992 159.503 59.864 159.151 59.608C158.799 59.384 158.623 58.92 158.623 58.216C158.623 57.768 158.703 57.368 158.863 57.016C159.055 56.664 159.359 56.488 159.775 56.488C160.479 56.488 161.183 56.28 161.887 55.864C162.591 55.48 163.263 54.888 163.903 54.088C164.575 53.32 165.151 52.408 165.631 51.352C166.111 50.296 166.463 49.128 166.687 47.848L158.719 28.408C158.623 28.216 158.575 28.04 158.575 27.88C158.575 27.528 158.719 27.208 159.007 26.92C159.295 26.632 159.631 26.408 160.015 26.248C160.431 26.056 160.815 25.96 161.167 25.96C161.423 25.96 161.679 26.024 161.935 26.152C162.191 26.28 162.351 26.488 162.415 26.776L168.799 43.48L174.511 26.776C174.607 26.488 174.767 26.28 174.991 26.152C175.247 26.024 175.503 25.96 175.759 25.96C176.079 25.96 176.431 26.056 176.815 26.248C177.231 26.408 177.583 26.632 177.871 26.92C178.159 27.208 178.303 27.544 178.303 27.928C178.303 28.12 178.271 28.28 178.207 28.408L170.863 47.944C170.383 49.256 169.871 50.616 169.327 52.024C168.783 53.432 168.127 54.728 167.359 55.912C166.623 57.128 165.695 58.104 164.575 58.84C163.455 59.608 162.079 59.992 160.447 59.992Z" fill="white"/>
<path d="M47.9965 30C48.0782 34.8359 46.7201 39.5809 44.1063 43.592C41.4926 47.6032 37.7494 50.6866 33.3841 52.4246C29.0188 54.1625 24.2423 54.4709 19.7018 53.3081C15.1612 52.1453 11.0761 49.5673 8 45.9236" stroke="white" stroke-width="3" stroke-linecap="round"/>
<path d="M2.02075 33.0919C1.53123 28.3405 2.51414 23.5534 4.83631 19.3793C7.15848 15.2052 10.7077 11.8458 15.003 9.75627C19.2983 7.66676 24.1321 6.94815 28.8495 7.69778C33.5669 8.44742 37.9398 10.6291 41.3758 13.9472" stroke="white" stroke-width="3" stroke-linecap="round"/>
<path d="M27.1849 44.8285C24.3427 45.2776 21.4312 44.8399 18.8465 43.5752C16.2619 42.3105 14.1298 40.28 12.7403 37.7602C11.3509 35.2405 10.7716 32.3538 11.0814 29.493C11.3911 26.6323 12.5748 23.9364 14.4714 21.7725" stroke="white" stroke-width="3" stroke-linecap="round"/>
<path d="M23.7693 17.0541C26.6356 16.8011 29.5103 17.4375 32.002 18.8767C34.4937 20.3158 36.4815 22.4878 37.6947 25.097C38.908 27.7062 39.2878 30.6258 38.7824 33.4586C38.2771 36.2913 36.9112 38.8995 34.8705 40.9283" stroke="white" stroke-width="3" stroke-linecap="round"/>
</svg>
