<?xml version="1.0" standalone="no"?>
<!DOCTYPE svg PUBLIC "-//W3C//DTD SVG 20010904//EN"
 "http://www.w3.org/TR/2001/REC-SVG-20010904/DTD/svg10.dtd">
<svg version="1.0" xmlns="http://www.w3.org/2000/svg"
 width="512.000000pt" height="512.000000pt" viewBox="0 0 512.000000 512.000000"
 preserveAspectRatio="xMidYMid meet">

<g transform="translate(0.000000,512.000000) scale(0.100000,-0.100000)"
fill="#000000" stroke="none">
<path d="M2445 5049 c-431 -47 -787 -373 -876 -804 -16 -79 -19 -138 -19 -477
l0 -387 -228 -3 -229 -3 -35 -27 c-71 -54 -70 -48 -65 -659 4 -453 7 -558 21
-629 68 -350 220 -631 470 -867 224 -212 512 -357 814 -409 l102 -17 0 -199 0
-198 -141 0 c-162 0 -195 -10 -236 -71 -41 -62 -30 -152 24 -201 51 -46 68
-48 513 -48 445 0 462 2 513 48 54 49 65 139 24 201 -41 61 -74 71 -236 71
l-141 0 0 199 0 199 53 7 c330 44 644 202 893 450 219 218 361 473 424 764 35
162 41 287 38 798 -3 478 -4 492 -24 519 -50 68 -53 69 -305 72 l-229 3 0 392
c0 343 -3 403 -19 482 -105 509 -583 852 -1106 794z m284 -325 c134 -35 284
-130 366 -232 46 -58 119 -194 131 -244 l6 -28 -88 0 c-71 0 -96 -4 -121 -20
-89 -54 -103 -172 -29 -246 39 -39 89 -54 184 -54 l72 0 0 -124 0 -124 -98 -4
c-90 -3 -102 -5 -135 -31 -98 -75 -93 -206 11 -265 33 -18 55 -22 131 -22 l91
0 0 -130 0 -130 -91 0 c-76 0 -98 -4 -131 -22 -103 -58 -109 -190 -12 -265 33
-25 46 -28 135 -31 l99 -4 0 -124 0 -124 -72 0 c-95 0 -145 -15 -184 -54 -73
-73 -62 -183 24 -241 32 -22 47 -25 125 -25 l89 0 -6 -27 c-4 -16 -27 -70 -52
-121 -76 -156 -216 -280 -383 -338 -149 -52 -313 -52 -462 0 -103 36 -173 81
-260 166 -62 62 -85 94 -122 170 -26 52 -49 107 -53 123 l-6 27 89 0 c78 0 93
3 125 25 86 58 97 168 24 241 -39 39 -89 54 -183 54 l-73 0 0 125 0 125 78 0
c42 0 94 5 114 10 71 20 128 119 109 187 -26 91 -81 123 -211 123 l-90 0 0
130 0 130 91 0 c75 0 98 4 130 22 92 51 110 157 42 239 -39 45 -79 59 -178 59
l-85 0 0 125 0 125 73 0 c94 0 144 15 183 54 73 73 62 183 -24 241 -32 22 -47
25 -125 25 l-89 0 6 28 c13 51 73 167 120 229 102 135 275 235 451 262 72 11
187 4 264 -15z m-1179 -2076 c0 -237 5 -441 11 -478 37 -233 183 -479 368
-618 202 -153 384 -214 631 -215 146 0 240 17 374 67 243 92 471 321 567 571
63 163 69 215 69 673 l0 412 121 0 121 0 -5 -447 c-4 -364 -7 -462 -21 -523
-94 -436 -388 -782 -791 -933 -192 -72 -435 -96 -636 -62 -491 82 -878 432
-1004 908 -38 144 -45 243 -45 665 l0 392 120 0 120 0 0 -412z"/>
</g>
</svg>
